<?xml version="1.0" encoding="UTF-8" standalone="no"?>
<svg width="35px" height="28px" viewBox="0 0 35 28" version="1.1" xmlns="http://www.w3.org/2000/svg" xmlns:xlink="http://www.w3.org/1999/xlink">
    <defs></defs>
    <g id="Page-2" stroke="none" stroke-width="1" fill="none" fill-rule="evenodd">
        <g id="Payment-Assets" transform="translate(-183.000000, -101.000000)" fill="#0071B2">
            <path d="M192.047677,111.000756 L192.047677,118.724515 C191.057011,116.148824 190.066293,113.573075 189.076617,111 L186.497689,111 C185.475678,113.658898 184.45752,116.307679 183.42775,118.986695 L185.24824,118.986695 C185.473387,118.385291 185.69317,117.798366 185.915089,117.205568 L189.581687,117.205568 C189.808239,117.809705 190.030938,118.403782 190.244994,118.974717 L193.679504,118.976453 L193.679504,112.555803 C194.53354,114.699237 195.387577,116.842555 196.242811,118.988839 L197.748595,118.988839 C198.606329,116.836799 199.459428,114.696446 200.312683,112.555687 L200.312683,118.980582 L201.980241,118.980582 L201.980241,111.001737 L199.185336,111.001737 C198.4911,112.820542 197.801445,114.627369 197.078675,116.52095 C196.294515,114.622717 195.545502,112.809494 194.79904,111.002492 L192.047677,111.000756 Z M187.690827,112.251911 C187.690827,112.251911 188.763762,115.159557 188.917626,115.576929 L186.460644,115.576929 C186.86522,114.474249 187.690827,112.251911 187.690827,112.251911 L187.690827,112.251911 Z M215.208103,111.015507 C214.481427,111.882463 213.744859,112.761223 212.989806,113.662078 C212.295204,112.748954 211.62846,111.872462 210.981346,111.021787 L202.992445,111.021787 L202.992445,119.001737 L210.76703,119.001737 C211.476679,118.145363 212.213821,117.255788 212.972467,116.34028 C213.706536,117.258347 214.42009,118.150771 215.100476,119.001737 L217.285398,119.001737 C216.182679,117.642982 215.13078,116.346851 214.057013,115.023798 C215.17858,113.679056 216.273696,112.365947 217.400002,111.015507 L215.208103,111.015507 L215.208103,111.015507 Z M208.593438,117.450291 L204.517213,117.450291 L204.517213,115.796678 L208.445979,115.796678 L208.445979,114.192257 L204.524086,114.192257 L204.524086,112.662844 L208.587086,112.662844 L208.587086,111.208788 C209.627061,112.479742 210.666463,113.750057 211.726485,115.045607 C210.671201,116.288244 209.632528,117.511344 208.593438,118.734851 L208.593438,117.450291 L208.593438,117.450291 Z" id="amex"></path>
        </g>
    </g>
</svg>