<svg id="Capa_1" enable-background="new 0 0 510 510" height="512" viewBox="0 0 510 510" width="512" xmlns="http://www.w3.org/2000/svg" xmlns:xlink="http://www.w3.org/1999/xlink"><linearGradient id="SVGID_1_" gradientUnits="userSpaceOnUse" x1="148.87" x2="283.845" y1="48.75" y2="183.724"><stop offset="0" stop-color="#edf5ff"/><stop offset="1" stop-color="#b5dbff"/></linearGradient><linearGradient id="SVGID_2_" gradientUnits="userSpaceOnUse" x1="247.86" x2="247.86" y1="165.387" y2="-217.455"><stop offset="0" stop-color="#b5dbff" stop-opacity="0"/><stop offset=".2428" stop-color="#93cef6" stop-opacity=".243"/><stop offset=".5763" stop-color="#6abfec" stop-opacity=".576"/><stop offset=".8403" stop-color="#51b5e5" stop-opacity=".84"/><stop offset="1" stop-color="#48b2e3"/></linearGradient><linearGradient id="lg1"><stop offset="0" stop-color="#b5dbff"/><stop offset="1" stop-color="#48b2e3"/></linearGradient><linearGradient id="SVGID_3_" gradientUnits="userSpaceOnUse" x1="49.998" x2="67.827" xlink:href="#lg1" y1="282.824" y2="296.408"/><linearGradient id="SVGID_4_" gradientUnits="userSpaceOnUse" x1="49.998" x2="67.827" xlink:href="#lg1" y1="322.927" y2="336.51"/><linearGradient id="SVGID_5_" gradientUnits="userSpaceOnUse" x1="49.998" x2="67.827" xlink:href="#lg1" y1="363.029" y2="376.613"/><linearGradient id="SVGID_6_" gradientUnits="userSpaceOnUse" x1="49.998" x2="67.827" xlink:href="#lg1" y1="403.132" y2="416.716"/><linearGradient id="SVGID_7_" gradientUnits="userSpaceOnUse" x1="451.331" x2="469.159" xlink:href="#lg1" y1="282.824" y2="296.408"/><linearGradient id="SVGID_8_" gradientUnits="userSpaceOnUse" x1="451.331" x2="469.159" xlink:href="#lg1" y1="322.927" y2="336.51"/><linearGradient id="SVGID_9_" gradientUnits="userSpaceOnUse" x1="451.331" x2="469.159" xlink:href="#lg1" y1="363.029" y2="376.613"/><linearGradient id="SVGID_10_" gradientUnits="userSpaceOnUse" x1="451.331" x2="469.159" xlink:href="#lg1" y1="403.132" y2="416.716"/><linearGradient id="SVGID_11_" gradientUnits="userSpaceOnUse" x1="148.912" x2="326.777" y1="240.193" y2="418.058"><stop offset="0" stop-color="#ffda2d"/><stop offset="1" stop-color="#fdbf00"/></linearGradient><linearGradient id="lg2"><stop offset="0" stop-color="#ff9100" stop-opacity="0"/><stop offset="1" stop-color="#ff9100"/></linearGradient><linearGradient id="SVGID_12_" gradientUnits="userSpaceOnUse" x1="255" x2="255" xlink:href="#lg2" y1="458.4" y2="511.971"/><linearGradient id="SVGID_13_" gradientUnits="userSpaceOnUse" x1="417.309" x2="236.884" xlink:href="#lg2" y1="508.592" y2="328.167"/><linearGradient id="lg3"><stop offset="0" stop-color="#ff637b"/><stop offset="1" stop-color="#e63950"/></linearGradient><linearGradient id="SVGID_14_" gradientUnits="userSpaceOnUse" x1="199.599" x2="314.407" xlink:href="#lg3" y1="290.88" y2="405.688"/><linearGradient id="SVGID_15_" gradientUnits="userSpaceOnUse" x1="334.801" x2="249.679" y1="427.472" y2="342.35"><stop offset="0" stop-color="#e63950" stop-opacity="0"/><stop offset=".0467" stop-color="#e4354b" stop-opacity=".047"/><stop offset=".4669" stop-color="#d31822" stop-opacity=".467"/><stop offset=".7991" stop-color="#c90709" stop-opacity=".799"/><stop offset="1" stop-color="#c50000"/></linearGradient><linearGradient id="SVGID_16_" gradientUnits="userSpaceOnUse" x1="227.846" x2="278.207" y1="320.517" y2="370.878"><stop offset="0" stop-color="#edf5ff"/><stop offset="1" stop-color="#d5e8fe"/></linearGradient><linearGradient id="SVGID_17_" gradientUnits="userSpaceOnUse" x1="90.086" x2="104.466" xlink:href="#lg3" y1="220.028" y2="230.984"/><linearGradient id="SVGID_18_" gradientUnits="userSpaceOnUse" x1="130.217" x2="144.597" xlink:href="#lg3" y1="220.028" y2="230.984"/><linearGradient id="SVGID_19_" gradientUnits="userSpaceOnUse" x1="170.347" x2="184.728" xlink:href="#lg3" y1="220.028" y2="230.984"/><linearGradient id="SVGID_20_" gradientTransform="matrix(.363 .932 -.932 .363 -792.326 268.506)" gradientUnits="userSpaceOnUse" x1="330.488" x2="341.494" xlink:href="#lg3" y1="-1212.545" y2="-1212.545"/><linearGradient id="SVGID_21_" gradientTransform="matrix(-.518 .856 -.856 -.518 -1289.812 -152.934)" gradientUnits="userSpaceOnUse" x1="-626.162" x2="-615.156" xlink:href="#lg3" y1="-1661.873" y2="-1661.873"/><linearGradient id="SVGID_22_" gradientTransform="matrix(-.96 -.279 -.279 .96 -1310.118 -204.99)" gradientUnits="userSpaceOnUse" x1="-1763.275" x2="-1752.269" xlink:href="#lg3" y1="-180.057" y2="-180.057"/><g><g><path d="m380.543 155h-.478c-13.144 0-24.684-8.405-29.1-20.785-15.14-42.445-55.971-72.794-103.675-72.238-59.731.697-107.39 50.239-107.39 109.974v24.888h-61.97v-26.2c0-94.089 76.55-170.639 170.65-170.639 74.317 0 137.691 47.753 161.045 114.187 7.011 19.943-7.942 40.813-29.082 40.813z" fill="url(#SVGID_1_)"/><path d="m388.7 155h-8.635c-13.144 0-24.684-8.405-29.1-20.785-15.14-42.445-55.971-72.794-103.675-72.238-59.731.697-107.39 50.239-107.39 109.974v24.888h-32.88v-21.73c0-78.05 63.5-141.56 141.56-141.56 71.22.001 130.33 52.891 140.12 121.451z" fill="url(#SVGID_2_)"/></g><g><g><path d="m59.748 306.179h-10.828c-7.849 0-14.211-6.363-14.211-14.211v-11.68c0-7.849 6.363-14.211 14.211-14.211h10.828c7.849 0 14.211 6.363 14.211 14.211v11.68c0 7.848-6.363 14.211-14.211 14.211z" fill="url(#SVGID_3_)"/><path d="m59.748 346.281h-10.828c-7.849 0-14.211-6.363-14.211-14.211v-11.68c0-7.849 6.363-14.211 14.211-14.211h10.828c7.849 0 14.211 6.363 14.211 14.211v11.68c0 7.849-6.363 14.211-14.211 14.211z" fill="url(#SVGID_4_)"/><path d="m59.748 386.384h-10.828c-7.849 0-14.211-6.363-14.211-14.211v-11.68c0-7.849 6.363-14.211 14.211-14.211h10.828c7.849 0 14.211 6.363 14.211 14.211v11.68c0 7.848-6.363 14.211-14.211 14.211z" fill="url(#SVGID_5_)"/><path d="m59.748 426.487h-10.828c-7.849 0-14.211-6.363-14.211-14.211v-11.68c0-7.849 6.363-14.211 14.211-14.211h10.828c7.849 0 14.211 6.363 14.211 14.211v11.68c0 7.848-6.363 14.211-14.211 14.211z" fill="url(#SVGID_6_)"/></g><g><path d="m461.08 306.179h-10.828c-7.849 0-14.211-6.363-14.211-14.211v-11.68c0-7.849 6.363-14.211 14.211-14.211h10.828c7.849 0 14.211 6.363 14.211 14.211v11.68c.001 7.848-6.362 14.211-14.211 14.211z" fill="url(#SVGID_7_)"/><path d="m461.08 346.281h-10.828c-7.849 0-14.211-6.363-14.211-14.211v-11.68c0-7.849 6.363-14.211 14.211-14.211h10.828c7.849 0 14.211 6.363 14.211 14.211v11.68c.001 7.849-6.362 14.211-14.211 14.211z" fill="url(#SVGID_8_)"/><path d="m461.08 386.384h-10.828c-7.849 0-14.211-6.363-14.211-14.211v-11.68c0-7.849 6.363-14.211 14.211-14.211h10.828c7.849 0 14.211 6.363 14.211 14.211v11.68c.001 7.848-6.362 14.211-14.211 14.211z" fill="url(#SVGID_9_)"/><path d="m461.08 426.487h-10.828c-7.849 0-14.211-6.363-14.211-14.211v-11.68c0-7.849 6.363-14.211 14.211-14.211h10.828c7.849 0 14.211 6.363 14.211 14.211v11.68c.001 7.848-6.362 14.211-14.211 14.211z" fill="url(#SVGID_10_)"/></g></g><g><path d="m412.348 510h-314.696c-23.924 0-43.318-19.394-43.318-43.318v-240.8c0-23.924 19.394-43.318 43.318-43.318h314.696c23.924 0 43.318 19.394 43.318 43.318v240.8c0 23.923-19.394 43.318-43.318 43.318z" fill="url(#SVGID_11_)"/><path d="m54.334 401.12v65.562c0 23.924 19.394 43.318 43.318 43.318h314.696c23.924 0 43.318-19.394 43.318-43.318v-65.562z" fill="url(#SVGID_12_)"/></g><path d="m455.666 378.569v88.111c0 23.929-19.391 43.32-43.32 43.32h-162.011l-77.211-77.211c-22.928-21.71-35.389-52.434-35.389-86.505 0-64.913 52.352-117.265 117.265-117.265 34.071 0 64.795 12.461 86.505 35.389z" fill="url(#SVGID_13_)"/><g><circle cx="255" cy="346.281" fill="url(#SVGID_14_)" r="119.112"/><path d="m289.73 283.248-34.73 34.73-34.73-34.731c-9.029-9.028-20.664-8.027-29.693 1.001-9.029 9.029-8.028 21.665 1.001 30.694l33.73 33.73-33.73 32.729c-9.029 9.029-11.03 22.666-2.001 31.694l51.618 51.497c4.531.523 9.136.801 13.806.801 65.784 0 119.112-53.328 119.112-119.112 0-3.656-.174-7.271-.496-10.843l-53.192-53.192c-9.03-9.027-21.666-8.027-30.695 1.002z" fill="url(#SVGID_15_)"/><path d="m287.695 347.671 32.729-32.729c9.029-9.029 9.029-23.666 0-32.695-9.029-9.028-23.666-9.028-32.695 0l-32.729 32.729-32.729-32.729c-9.029-9.028-23.666-9.028-32.695 0-9.029 9.029-9.029 23.666 0 32.695l32.729 32.729-32.729 32.729c-9.029 9.029-9.029 23.666 0 32.695 4.514 4.514 10.431 6.771 16.347 6.771s11.833-2.257 16.347-6.771l32.73-32.729 32.729 32.729c4.514 4.514 10.431 6.771 16.347 6.771s11.833-2.257 16.348-6.771c9.029-9.029 9.029-23.666 0-32.695z" fill="url(#SVGID_16_)"/></g><g><path d="m98.698 238.43h-10.23c-5.867 0-10.623-4.756-10.623-10.623v-10.229c0-5.867 4.756-10.623 10.623-10.623h10.229c5.867 0 10.623 4.756 10.623 10.623v10.229c0 5.867-4.756 10.623-10.622 10.623z" fill="url(#SVGID_17_)"/><path d="m138.828 238.43h-10.229c-5.867 0-10.623-4.756-10.623-10.623v-10.229c0-5.867 4.756-10.623 10.623-10.623h10.229c5.867 0 10.623 4.756 10.623 10.623v10.229c0 5.867-4.756 10.623-10.623 10.623z" fill="url(#SVGID_18_)"/><path d="m178.959 238.43h-10.229c-5.867 0-10.623-4.756-10.623-10.623v-10.229c0-5.867 4.756-10.623 10.623-10.623h10.229c5.867 0 10.623 4.756 10.623 10.623v10.229c0 5.867-4.756 10.623-10.623 10.623z" fill="url(#SVGID_19_)"/></g><g><g><path d="m441.737 144.098c-1.99-5.102.533-10.852 5.635-12.842l14.398-5.616c5.102-1.99 10.852.533 12.842 5.635 1.99 5.102-.533 10.852-5.635 12.842l-14.398 5.616c-5.103 1.99-10.852-.533-12.842-5.635z" fill="url(#SVGID_20_)"/></g><g><path d="m439.96 164.657c2.836-4.685 8.933-6.184 13.618-3.348l13.221 8.003c4.685 2.836 6.184 8.933 3.348 13.618-2.836 4.685-8.933 6.184-13.618 3.348l-13.221-8.003c-4.685-2.836-6.184-8.933-3.348-13.618z" fill="url(#SVGID_21_)"/></g><g><path d="m426.508 130.173c5.259 1.527 10.761-1.498 12.288-6.758l4.31-14.841c1.527-5.259-1.498-10.761-6.758-12.288-5.259-1.527-10.761 1.498-12.288 6.758l-4.31 14.841c-1.526 5.259 1.499 10.761 6.758 12.288z" fill="url(#SVGID_22_)"/></g></g></g></svg>