<?xml version="1.0" encoding="UTF-8" standalone="no"?>
<svg width="26px" height="28px" viewBox="0 0 26 28" version="1.1" xmlns="http://www.w3.org/2000/svg" xmlns:xlink="http://www.w3.org/1999/xlink">
    <defs></defs>
    <g id="Page-2" stroke="none" stroke-width="1" fill="none" fill-rule="evenodd">
        <g id="Payment-Assets" transform="translate(-128.000000, -105.000000)" fill="#0079BE">
            <path d="M146,127 L136,127 C131.581722,127 128,123.418278 128,119 C128,114.581722 131.581722,111 136,111 L136,111 L146,111 C150.418278,111 154,114.581722 154,119 C154,123.418278 150.418278,127 146,127 Z M136,126 C139.865993,126 143,122.865993 143,119 C143,115.134007 139.865993,112 136,112 C132.134007,112 129,115.134007 129,119 C129,122.865993 132.134007,126 136,126 Z M137,122.873983 C138.725227,122.42994 140,120.863839 140,119 C140,117.136161 138.725227,115.57006 137,115.126017 L137,122.873983 L137,122.873983 Z M135,115.126017 C133.274773,115.57006 132,117.136161 132,119 C132,120.863839 133.274773,122.42994 135,122.873983 L135,115.126017 L135,115.126017 Z" id="diners_club"></path>
        </g>
    </g>
</svg>