<?xml version="1.0" encoding="UTF-8" standalone="no"?>
<svg width="51px" height="28px" viewBox="0 0 51 28" version="1.1" xmlns="http://www.w3.org/2000/svg" xmlns:xlink="http://www.w3.org/1999/xlink">
    <defs></defs>
    <g id="Page-2" stroke="none" stroke-width="1" fill="none" fill-rule="evenodd">
        <g id="Payment-Assets" transform="translate(-117.000000, -235.000000)">
            <g id="discover" transform="translate(117.000000, 244.800003)">
                <path d="M0,0.181107882 L0,8.19443507 L2.24704869,8.19443507 C3.44189824,8.19443507 4.30450646,7.90806791 5.06195573,7.26939174 C5.96205541,6.51276325 6.49425115,5.37255757 6.49425115,4.19334403 C6.49425115,1.82841564 4.75470871,0.181107882 2.25893623,0.181107882 L0,0.181107882 Z M4.05669711,6.20070044 C3.57296592,6.64433736 2.94506029,6.83782868 1.95077478,6.83782868 L1.53775918,6.83782868 L1.53775918,1.53895261 L1.95077478,1.53895261 C2.94506029,1.53895261 3.54827643,1.71944132 4.05669711,2.18691637 C4.58889285,2.66832279 4.90894184,3.41411576 4.90894184,4.18157975 C4.90894184,4.95090127 4.58889285,5.71960361 4.05669711,6.20070044 L4.05669711,6.20070044 Z M7.20232143,0.181107882 L8.74129984,0.181107882 L8.74129984,8.19443507 L7.20232143,8.19443507 L7.20232143,0.181107882 Z M14.7734612,5.75582518 C14.7734612,7.30716124 13.6514609,8.38699764 12.0524352,8.38699764 C10.8813607,8.38699764 10.0297256,7.91859383 9.32074091,6.86166681 L10.3150264,5.8892568 C10.6695188,6.58520641 11.2605426,6.9579481 11.9945216,6.9579481 C12.6812553,6.9579481 13.1893711,6.47685126 13.1893711,5.82764916 C13.1893711,5.49112905 13.0354428,5.20259478 12.7281958,4.99857753 C12.573353,4.90167707 12.2667156,4.75802911 11.6641091,4.54224759 C10.2190117,4.01378407 9.72308821,3.4487894 9.72308821,2.34480529 C9.72308821,1.03308889 10.7877845,0.0486050212 12.1838077,0.0486050212 C13.0488544,0.0486050212 13.8404422,0.349213146 14.5021816,0.937117192 L13.6968774,2.00797559 C13.2960541,1.55133606 12.9171771,1.35908308 12.4560017,1.35908308 C11.7927383,1.35908308 11.3096168,1.7423507 11.3096168,2.24728566 C11.3096168,2.68008706 11.5805916,2.90918079 12.5041615,3.25622683 C14.2546771,3.90635769 14.7734612,4.48280705 14.7734612,5.75582518 L14.7734612,5.75582518 Z M19.459588,0 C20.1216322,0 20.6772982,0.144267133 21.352754,0.492241934 L21.352754,2.3311835 C20.7129608,1.69560319 20.1572948,1.42966871 19.4233158,1.42966871 C17.9797424,1.42966871 16.8449402,2.64324631 16.8449402,4.18157975 C16.8449402,5.80443021 17.9449943,6.94587424 19.4949458,6.94587424 C20.1926526,6.94587424 20.7373455,6.69356155 21.352754,6.06819758 L21.352754,7.90806791 C20.6529135,8.2427305 20.0856648,8.37492378 19.4233158,8.37492378 C17.0799476,8.37492378 15.2590213,6.54867524 15.2590213,4.19334403 C15.2590213,1.86339887 17.1281073,0 19.459588,0 L19.459588,0 Z M36.7357668,0.181107882 L38.4039841,0.181107882 L34.9956148,8.40000025 L34.1677547,8.40000025 L30.8194327,0.181107882 L32.5007567,0.181107882 L34.6045454,5.5635722 L36.7357668,0.181107882 L36.7357668,0.181107882 Z M43.4644158,0.181107882 L43.4644158,1.53895261 L40.6376212,1.53895261 L40.6376212,3.31752489 L43.3601712,3.31752489 L43.3601712,4.67475045 L40.6376212,4.67475045 L40.6376212,6.83782868 L43.4644158,6.83782868 L43.4644158,8.19443507 L39.099862,8.19443507 L39.099862,0.181107882 L43.4644158,0.181107882 Z M49.5575389,2.54696503 C49.5575389,1.04671068 48.5400879,0.181107882 46.7654925,0.181107882 L44.4833908,0.181107882 L44.4833908,8.19443507 L46.0205403,8.19443507 L46.0205403,4.97535857 L46.2214092,4.97535857 L48.3514114,8.19443507 L50.2439677,8.19443507 L47.7600828,4.81839841 C48.9192697,4.57908833 49.5575389,3.77385483 49.5575389,2.54696503 L49.5575389,2.54696503 Z M46.470133,3.8704457 L46.0205403,3.8704457 L46.0205403,1.4432905 L46.4945177,1.4432905 C47.4528358,1.4432905 47.9740584,1.85132501 47.9740584,2.63086287 C47.9740584,3.43671554 47.4528358,3.8704457 46.470133,3.8704457 L46.470133,3.8704457 Z" id="Fill-1" fill="#1A1918"></path>
                <ellipse id="Oval-157" fill="#F58220" cx="26.2936296" cy="4.20000013" rx="4.20000013" ry="4.20000013"></ellipse>
            </g>
        </g>
    </g>
</svg>