<svg height="512pt" viewBox="0 -36 512.00001 512" width="512pt" xmlns="http://www.w3.org/2000/svg"><path d="m439.886719 361.59375h-419.28125c-11.378907 0-20.605469-9.226562-20.605469-20.605469v-296.691406h439.886719zm0 0" fill="#d8d8d8"/><path d="m408.980469 44.296875h30.925781v317.296875h-30.925781zm0 0" fill="#afafaf"/><path d="m439.886719 20.605469v33.996093h-439.886719v-33.996093c0-11.378907 9.226562-20.605469 20.605469-20.605469h398.679687c11.378906 0 20.601563 9.226562 20.601563 20.605469zm0 0" fill="#aac9e2"/><path d="m36.054688 330.6875c-2.84375 0-5.148438-2.304688-5.148438-5.152344v-234.878906c0-2.84375 2.304688-5.152344 5.148438-5.152344h367.777343c2.84375 0 5.148438 2.308594 5.148438 5.152344v240.03125zm0 0" fill="#fafeff"/><path d="m343.566406 146.285156c-4.269531 0-7.726562 3.460938-7.726562 7.726563v54.601562h-43.785156c-1.417969 0-2.574219-1.15625-2.574219-2.578125v-52.023437c0-4.265625-3.457031-7.726563-7.726563-7.726563-4.265625 0-7.726562 3.460938-7.726562 7.726563v52.023437c0 9.941406 8.089844 18.03125 18.03125 18.03125h43.78125v43.980469c0 4.269531 3.460937 7.726563 7.726562 7.726563s7.726563-3.457032 7.726563-7.726563v-114.035156c0-4.265625-3.460938-7.726563-7.726563-7.726563zm0 0" fill="#ea9292"/><path d="m512 336.355469c0 57.179687-46.351562 103.53125-103.53125 103.53125s-103.535156-46.351563-103.535156-103.53125c0-57.179688 46.355468-103.535157 103.535156-103.535157s103.53125 46.355469 103.53125 103.535157zm0 0" fill="#f2d67c"/><path d="m363.652344 307.691406c-4.265625 0-7.722656 3.457032-7.722656 7.722656v23.695313c0 4.269531 3.457031 7.726563 7.722656 7.726563 4.269531 0 7.726562-3.457032 7.726562-7.726563v-23.695313c0-4.265624-3.457031-7.722656-7.726562-7.722656zm0 0" fill="#a8704a"/><path d="m453.28125 307.691406c-4.269531 0-7.726562 3.457032-7.726562 7.722656v23.695313c0 4.269531 3.457031 7.726563 7.726562 7.726563 4.265625 0 7.726562-3.457032 7.726562-7.726563v-23.695313c0-4.265624-3.460937-7.722656-7.726562-7.722656zm0 0" fill="#a8704a"/><path d="m408.46875 349.929688c-12.078125 0-23.292969 5.445312-30.773438 14.945312-2.640624 3.351562-2.0625 8.210938 1.289063 10.847656 3.355469 2.640625 8.210937 2.0625 10.851563-1.289062 4.53125-5.753906 11.320312-9.050782 18.632812-9.050782 7.308594 0 14.101562 3.296876 18.628906 9.050782 1.523438 1.9375 3.789063 2.949218 6.078125 2.949218 1.671875 0 3.355469-.542968 4.773438-1.65625 3.351562-2.640624 3.929687-7.5 1.289062-10.851562-7.476562-9.5-18.691406-14.945312-30.769531-14.945312zm0 0" fill="#a8704a"/><path d="m512 336.355469c0 57.171875-46.359375 103.53125-103.53125 103.53125-5.253906 0-10.417969-.390625-15.453125-1.152344 49.847656-7.460937 88.078125-50.460937 88.078125-102.378906 0-51.921875-38.230469-94.921875-88.078125-102.378907 5.035156-.761718 10.199219-1.15625 15.453125-1.15625 57.171875 0 103.53125 46.359376 103.53125 103.535157zm0 0" fill="#e2b061"/><path d="m37.601562 18.027344c-5.113281 0-9.273437 4.160156-9.273437 9.273437s4.160156 9.273438 9.273437 9.273438c5.113282 0 9.273438-4.160157 9.273438-9.273438s-4.160156-9.273437-9.273438-9.273437zm0 0" fill="#fff"/><path d="m76.746094 18.027344c-5.109375 0-9.269532 4.160156-9.269532 9.273437s4.160157 9.273438 9.269532 9.273438c5.113281 0 9.273437-4.160157 9.273437-9.273438s-4.160156-9.273437-9.273437-9.273437zm0 0" fill="#fff"/><path d="m115.894531 36.570312c5.113281 0 9.273438-4.15625 9.273438-9.269531s-4.160157-9.273437-9.273438-9.273437-9.273437 4.160156-9.273437 9.273437 4.160156 9.269531 9.273437 9.269531zm0 0" fill="#fff"/><g fill="#ea9292"><path d="m158.132812 146.285156c-4.269531 0-7.726562 3.460938-7.726562 7.726563v54.601562h-43.78125c-1.421875 0-2.574219-1.15625-2.574219-2.578125v-52.023437c0-4.265625-3.460937-7.726563-7.726562-7.726563-4.269531 0-7.726563 3.460938-7.726563 7.726563v52.023437c0 9.941406 8.085938 18.03125 18.027344 18.03125h43.78125v39.144532c0 4.269531 3.460938 7.726562 7.726562 7.726562 4.269532 0 7.726563-3.457031 7.726563-7.726562v-109.199219c0-4.265625-3.460937-7.726563-7.726563-7.726563zm0 0"/><path d="m240.546875 146.800781h-41.207031c-9.941406 0-18.027344 8.089844-18.027344 18.027344v87.566406c0 9.941407 8.085938 18.027344 18.027344 18.027344h41.207031c9.941406 0 18.027344-8.085937 18.027344-18.027344v-87.566406c0-9.9375-8.085938-18.027344-18.027344-18.027344zm2.574219 105.59375c0 1.421875-1.152344 2.574219-2.574219 2.574219h-41.207031c-1.421875 0-2.574219-1.152344-2.574219-2.574219v-87.566406c0-1.417969 1.15625-2.574219 2.574219-2.574219h41.207031c1.421875 0 2.574219 1.15625 2.574219 2.574219zm0 0"/><path d="m219.945312 185.433594c-4.269531 0-7.726562 3.457031-7.726562 7.726562v30.902344c0 4.269531 3.457031 7.726562 7.726562 7.726562 4.265626 0 7.726563-3.457031 7.726563-7.726562v-30.902344c0-4.269531-3.460937-7.726562-7.726563-7.726562zm0 0"/></g><path d="m439.90625 20.605469v33.996093h-30.902344v-33.996093c0-11.382813-9.222656-20.605469-20.605468-20.605469h30.90625c11.382812 0 20.601562 9.21875 20.601562 20.605469zm0 0" fill="#699eb5"/></svg>