<svg id="Capa_1" enable-background="new 0 0 512 512" height="512" viewBox="0 0 512 512" width="512" xmlns="http://www.w3.org/2000/svg" fill='#a34ef3'><g><path d="m512 478.581-256-445.162-256 445.162zm-460.925-29.546 56.751-98.686c8.076 7.847 19.39 17.985 33.216 28.155 38.425 28.263 78.137 43.203 114.841 43.203 66.183 0 123.043-46.765 148.322-71.302l56.719 98.631h-409.849zm205.616-188.809c11.257 0 20.415 9.158 20.415 20.415s-9.158 20.415-20.415 20.415c-11.258 0-20.416-9.158-20.416-20.415s9.158-20.415 20.416-20.415zm-49.924 21.921c.801 26.853 22.879 48.456 49.924 48.456 27.044 0 49.122-21.603 49.923-48.456 9.985 11.563 16.044 26.606 16.044 43.047 0 36.375-29.592 65.967-65.967 65.967s-65.968-29.592-65.968-65.967c0-16.441 6.059-31.484 16.044-43.047zm138.893 8.3c18.671 12.712 33.356 26.299 41.851 34.826-8.51 8.542-23.226 22.155-41.933 34.881 4.275-10.832 6.625-22.627 6.625-34.961.001-12.252-2.321-23.972-6.543-34.746zm-177.295 71.083c-19.632-13.116-35.055-27.416-43.826-36.257 8.76-8.83 24.149-23.097 43.735-36.196-4.57 11.148-7.098 23.341-7.098 36.116 0 12.859 2.561 25.13 7.189 36.337zm183.367-102.374c-32.417-19.892-65.201-30.317-95.848-30.317-35.75 0-68.728 13.645-95.47 30.063l95.586-166.216z"/></g></svg>