<svg id="Capa_1" enable-background="new 0 0 512 512" height="512" viewBox="0 0 512 512" width="512" xmlns="http://www.w3.org/2000/svg"><g><g><g><g><path d="m512 478.581h-512l256-445.162z" fill="#fabe2c"/></g></g><g><g><path d="m512 478.581h-256l-.156-61.06v-183.406l.156-200.696z" fill="#fd9025"/></g></g></g><g><g><g><g><path d="m259.574 234.195c-1.242-.023-2.485-.039-3.729-.039-43.865 0-86.024 14.571-121.919 42.138-27.079 20.796-46.272 49.862-46.272 49.862s19.758 28.057 47.015 48.802c36.193 27.546 78.094 42.106 121.176 42.106 1.242 0 2.485-.014 3.729-.042z" fill="#edf5ff"/></g></g></g><g><path d="m377.758 276.293c-35.897-27.567-78.054-42.138-121.913-42.138v182.908c39.938 0 80.809-14.517 118.196-41.981 27.983-20.556 50.328-48.886 50.328-48.886s-19.531-29.107-46.611-49.903z" fill="#d6e8fd"/></g><g><path d="m255.844 417.523c-50.564 0-91.702-41.137-91.702-91.702 0-50.564 41.137-91.702 91.702-91.702s91.702 41.137 91.702 91.702c0 50.564-41.137 91.702-91.702 91.702z" fill="#d599ed"/></g><g><path d="m255.844 234.118v183.404c50.564 0 91.702-41.137 91.702-91.702 0-50.564-41.137-91.702-91.702-91.702z" fill="#ad77e3"/></g><g><path d="m255.844 313.604c-21.914 0-39.743-17.829-39.743-39.743s17.829-39.743 39.743-39.743 21.915 79.486 0 79.486z" fill="#ad77e3"/></g><g><path d="m255.844 234.118v79.486c21.914 0 39.743-17.829 39.743-39.743s-17.828-39.743-39.743-39.743z" fill="#935ed0"/></g></g></g></svg>