<?xml version="1.0" encoding="UTF-8" standalone="no"?>
<svg width="16px" height="28px" viewBox="0 0 16 28" version="1.1" xmlns="http://www.w3.org/2000/svg" xmlns:xlink="http://www.w3.org/1999/xlink">
    <defs></defs>
    <g id="Page-2" stroke="none" stroke-width="1" fill="none" fill-rule="evenodd">
        <g id="Payment-Assets" transform="translate(-183.000000, -265.000000)">
            <g id="jcb" transform="translate(183.000000, 272.000000)">
                <path d="M4,2 L4,12 C4,13.1045695 3.1045695,14 2,14 L0,14 L0,12 L0,2 C0,0.8954305 0.8954305,0 2,0 L4,0 L4,2 L4,2 L4,2 Z" id="Rectangle-366-Copy" fill="#005CAC"></path>
                <path d="M16,2 L16,12 C16,13.1045695 15.1045695,14 14,14 L12,14 L12,12 L12,2 C12,0.8954305 12.8954305,0 14,0 L16,0 L16,2 L16,2 L16,2 Z" id="Rectangle-366-Copy-2" fill="#4BB126"></path>
                <path d="M10,2 L10,12 C10,13.1045695 9.1045695,14 8,14 L6,14 L6,12 L6,2 C6,0.8954305 6.8954305,0 8,0 L10,0 L10,2 L10,2 L10,2 Z" id="Rectangle-366-Copy-3" fill="#D80032"></path>
            </g>
        </g>
    </g>
</svg>