<?xml version="1.0" encoding="UTF-8" standalone="no"?>
<svg width="26px" height="28px" viewBox="0 0 26 28" version="1.1" xmlns="http://www.w3.org/2000/svg" xmlns:xlink="http://www.w3.org/1999/xlink">
    <defs></defs>
    <g id="Page-2" stroke="none" stroke-width="1" fill="none" fill-rule="evenodd">
        <g id="Payment-Assets" transform="translate(-163.000000, -156.000000)">
            <g id="mastercard" transform="translate(163.000000, 162.000000)">
                <ellipse id="Oval-1-Copy-4" fill="#F1AB3E" cx="18" cy="8" rx="8" ry="8"></ellipse>
                <path d="M8,16 C12.418278,16 16,12.418278 16,8 C16,3.581722 12.418278,0 8,0 C3.581722,0 0,3.581722 0,8 C0,12.418278 3.581722,16 8,16 L8,16 Z M11.754629,3 L14.245371,3 C14.7276159,3.60158054 15.1247413,4.27433529 15.418483,5 L10.581517,5 C10.8752587,4.27433529 11.2723841,3.60158054 11.754629,3 L11.754629,3 Z M10.0618938,7 L15.9381062,7 C15.9789567,7.32759424 16,7.66133965 16,8 C16,8.33866035 15.9789567,8.67240576 15.9381062,9 L10.0618938,9 C10.0210433,8.67240576 10,8.33866035 10,8 C10,7.66133965 10.0210433,7.32759424 10.0618938,7 L10.0618938,7 L10.0618938,7 Z M10.581517,11 L15.418483,11 C15.1247413,11.7256647 14.7276159,12.3984195 14.245371,13 L11.754629,13 C11.2723841,12.3984195 10.8752587,11.7256647 10.581517,11 L10.581517,11 L10.581517,11 Z" id="Oval-1-Copy-6" fill="#D82332"></path>
            </g>
        </g>
    </g>
</svg>