<svg id="color" enable-background="new 0 0 24 24" height="512" viewBox="0 0 24 24" width="512" xmlns="http://www.w3.org/2000/svg"><path d="m12 8.75c-.553 0-1-.447-1-1v-2.75c0-1.654-1.346-3-3-3s-3 1.346-3 3v2.75c0 .553-.447 1-1 1s-1-.447-1-1v-2.75c0-2.757 2.243-5 5-5s5 2.243 5 5v2.75c0 .553-.447 1-1 1z" fill="#90a4ae"/><path d="m13.75 20h-11.5c-1.24 0-2.25-1.01-2.25-2.25v-8.5c0-1.24 1.01-2.25 2.25-2.25h11.5c1.24 0 2.25 1.01 2.25 2.25v8.5c0 1.24-1.01 2.25-2.25 2.25z" fill="#ffc107"/><path d="m8 0c-2.757 0-5 2.243-5 5v2h2v-2c0-1.654 1.346-3 3-3z" fill="#7d8f97"/><path d="m8 7h-3-2-.75c-1.24 0-2.25 1.01-2.25 2.25v8.5c0 1.24 1.01 2.25 2.25 2.25h5.75z" fill="#dea806"/><path d="m23.707 22.293-2.54-2.54c.524-.79.833-1.735.833-2.753 0-2.757-2.243-5-5-5s-5 2.243-5 5 2.243 5 5 5c1.018 0 1.962-.309 2.753-.833l2.54 2.54c.391.391 1.023.391 1.414 0s.391-1.023 0-1.414zm-6.707-2.293c-1.654 0-3-1.346-3-3s1.346-3 3-3 3 1.346 3 3-1.346 3-3 3z" fill="#607d8b"/><path d="m20 17c0 1.657-1.343 3-3 3s-3-1.343-3-3 1.343-3 3-3 3 1.343 3 3z" fill="#fff"/><path d="m13.347 13.59c-.835.894-1.347 2.093-1.347 3.41 0 2.757 2.243 5 5 5 1.018 0 1.962-.309 2.753-.833l2.54 2.54c.195.195.451.293.707.293.202 0 .404-.061.576-.182l-4.579-4.579c-.531.473-1.23.761-1.997.761-1.657 0-3-1.343-3-3 0-.767.288-1.466.761-1.997z" fill="#546d79"/><path d="m14.761 15.003c-.473.531-.761 1.23-.761 1.997 0 1.657 1.343 3 3 3 .767 0 1.466-.288 1.997-.761z" fill="#dedede"/></svg>