<svg height="512" viewBox="0 0 58 58" width="512" xmlns="http://www.w3.org/2000/svg"><g id="Page-1" fill="none" fill-rule="evenodd"><g id="064---Crop-Photo" fill-rule="nonzero"><path id="Shape" d="m46 8v-7c0-.55228475.4477153-1 1-1h4c.5522847 0 1 .44771525 1 1v7z" fill="#5A47CC"/><path id="Rectangle-path" d="m11 11h36v36h-36z" fill="#2fa8cc"/><path id="Shape" d="m12 46v-33.5c0-.2761424.2238576-.5.5-.5h44.5c.5522847 0 1-.4477153 1-1v-4c0-.55228475-.4477153-1-1-1h-50c-.55228475 0-1 .44771525-1 1v50c0 .5522847.44771525 1 1 1h4c.5522847 0 1-.4477153 1-1z" fill="#5A47CC"/><path id="Shape" d="m52 12v39c0 .5522847-.4477153 1-1 1h-50c-.55228475 0-1-.4477153-1-1v-4c0-.5522847.44771525-1 1-1h44.5c.2761424 0 .5-.2238576.5-.5v-33.5z" fill="#5A47CC"/><circle id="Oval" cx="19" cy="19" fill="#f0c419" r="3"/><path id="Shape" d="m40 24c-.0032948 1.1032019-.8967981 1.9967052-2 2h-5c-1.1045695 0-2-.8954305-2-2s.8954305-2 2-2c.3591204-.0010404.7117416.0957575 1.02.28-.0119951-.0928761-.0186726-.1863619-.02-.28 0-1.1045695.8954305-2 2-2s2 .8954305 2 2c1.1032019.0032948 1.9967052.8967981 2 2z" fill="#ecf0f1"/><path id="Shape" d="m26 20h-1c-.5522847 0-1-.4477153-1-1s.4477153-1 1-1h1c.5522847 0 1 .4477153 1 1s-.4477153 1-1 1z" fill="#f3d55b"/><path id="Shape" d="m19 27c-.5522847 0-1-.4477153-1-1v-1c0-.5522847.4477153-1 1-1s1 .4477153 1 1v1c0 .5522847-.4477153 1-1 1z" fill="#f3d55b"/><path id="Shape" d="m31.91 35.68-9.02 10.32h-10.89v-2.1l9.62-11.77c.7541238 1.2020842 2.0898301 1.9133264 3.5081594 1.8680386 1.4183294-.0452877 2.7059407-.8402933 3.3818406-2.0880386z" fill="#35495e"/><path id="Shape" d="m46 41v4.5c0 .2761424-.2238576.5-.5.5h-22.61l9.02-10.32.62-.7c.7424643 1.3078052 2.1573419 2.086893 3.6594895 2.0150603 1.5021477-.0718326 2.8362272-.9823755 3.4505105-2.3550603z" fill="#3f5c6c"/><g fill="#ecf0f1"><path id="Shape" d="m28.51 31.91c-.6758999 1.2477453-1.9635112 2.0427509-3.3818406 2.0880386-1.4183293.0452878-2.7540356-.6659544-3.5081594-1.8680386l2.64-3.23c.1855663-.2259759.4607417-.3594118.7530885-.3651818.2923469-.0057701.5725731.116704.7669115.3351818z"/><path id="Shape" d="m39.64 34.64c-.6142833 1.3726848-1.9483628 2.2832277-3.4505105 2.3550603-1.5021476.0718327-2.9170252-.7072551-3.6594895-2.0150603l2.77-3.17c.1820616-.2085813.44245-.3323485.7191498-.3418245.2766999-.009476.5449455.0961872.7408502.2918245z"/></g></g></g></svg>