<?xml version="1.0" encoding="iso-8859-1"?>
<!-- Generator: Adobe Illustrator 19.0.0, SVG Export Plug-In . SVG Version: 6.00 Build 0)  -->
<svg version="1.1" id="Capa_1" xmlns="http://www.w3.org/2000/svg" xmlns:xlink="http://www.w3.org/1999/xlink" x="0px" y="0px"
	 viewBox="0 0 512.003 512.003" style="enable-background:new 0 0 512.003 512.003;" xml:space="preserve">
<path style="fill:#ED1C24;" d="M452.065,182.565c27.672-17.003,36.316-53.218,19.305-80.889
	c-17.003-27.672-53.218-36.316-80.889-19.305c-4.797,2.949-9.14,6.569-12.903,10.744
	C411.843,113.613,438.112,145.157,452.065,182.565z"/>
<path style="fill:#FFEB99;" d="M421.193,200.383c-19.977-53.369-64.5-93.801-119.541-108.561
	c-15.827-4.276-32.183-6.284-48.581-5.973C155.659,87.454,77.987,167.73,79.591,265.143s81.881,175.085,179.294,173.481
	S433.97,356.743,432.366,259.33C432.038,239.185,428.258,219.251,421.193,200.383z M93.704,305.701l16.23-4.343L93.704,305.701z
	 M93.704,218.738l16.23,4.343L93.704,218.738z M216.857,116.159l-4.343-16.23L216.857,116.159z M137.194,381.021l11.878-11.878
	L137.194,381.021z M137.194,143.419l11.878,11.878L137.194,143.419z M212.514,424.503l4.343-16.222L212.514,424.503z
	 M272.225,266.571c-2.403,8.963-11.618,14.281-20.581,11.878c-8.963-2.403-14.281-11.618-11.878-20.581l-48.724-13.046
	l48.723,13.046c2.403-8.963,11.618-14.281,20.581-11.878l0,0l21.741-81.141l-21.741,81.141
	C269.31,248.392,274.628,257.608,272.225,266.571C272.234,266.571,272.225,266.571,272.225,266.571z M295.134,408.281l4.343,16.222
	L295.134,408.281z M295.134,116.159l4.343-16.23L295.134,116.159z M362.918,369.143l11.878,11.878L362.918,369.143z
	 M362.918,155.297l11.878-11.878L362.918,155.297z M402.057,301.358l16.23,4.343L402.057,301.358z M402.057,223.081l16.23-4.343
	L402.057,223.081z"/>
<path style="fill:#ED1C24;" d="M192.991,10.521c-31.376-8.375-63.609,10.266-71.985,41.642c-3.864,14.466-2.058,29.856,5.032,43.036
	c30.78-25.42,69.297-39.6,109.208-40.222C230.617,33.404,214.303,16.242,192.991,10.521z"/>
<path style="fill:#FFDA44;" d="M239.765,257.868c-2.403,8.963,2.915,18.179,11.878,20.581c8.963,2.403,18.179-2.915,20.581-11.878
	c2.403-8.963-2.915-18.171-11.878-20.573C251.392,243.587,242.176,248.905,239.765,257.868
	C239.774,257.868,239.765,257.868,239.765,257.868z"/>
<g>
	<path style="fill:#231F20;" d="M59.077,133.691c2.638-3.822,1.672-9.047-2.151-11.685c-3.822-2.638-9.047-1.672-11.685,2.151
		c-0.084,0.126-0.168,0.252-0.244,0.378C15.763,169.696,1.583,222.955,4.481,276.677c0.252,4.452,3.94,7.939,8.401,7.93h0.47
		c4.629-0.26,8.182-4.217,7.922-8.854l0,0C18.569,225.593,31.8,175.87,59.077,133.691z"/>
	<path style="fill:#231F20;" d="M103.944,129.81c3.192-3.36,3.058-8.678-0.302-11.878c-3.36-3.192-8.678-3.058-11.878,0.302
		c-0.168,0.176-0.328,0.361-0.479,0.554c-44.17,51.059-62.45,119.583-49.564,185.855c0.899,4.553,5.326,7.51,9.879,6.611
		c4.553-0.899,7.51-5.326,6.611-9.879l0,0C46.325,240.202,63.185,176.954,103.944,129.81z"/>
	<path style="fill:#231F20;" d="M507.56,248.518c-0.244-4.637-4.209-8.199-8.846-7.955c-4.637,0.244-8.199,4.209-7.955,8.846
		c2.562,50.143-10.803,99.808-38.189,141.886c-2.554,3.881-1.47,9.098,2.411,11.643c3.881,2.554,9.098,1.47,11.643-2.403
		C495.975,355.458,510.307,302.24,507.56,248.518z"/>
	<path style="fill:#231F20;" d="M470.387,220.368c-0.949-4.545-5.393-7.46-9.938-6.51c-4.461,0.932-7.359,5.242-6.552,9.719
		c11.719,61.215-5.309,124.421-46.203,171.456c-3.285,3.276-3.301,8.594-0.025,11.878c3.276,3.285,8.594,3.301,11.878,0.025
		c0.269-0.269,0.521-0.554,0.748-0.848C464.607,355.147,483.072,286.682,470.387,220.368z"/>
	<path style="fill:#231F20;" d="M373.276,100.332c32.594,19.54,57.586,49.564,70.893,85.165c0.874,2.369,2.755,4.217,5.141,5.04
		c0.874,0.311,1.798,0.462,2.73,0.462c1.554,0,3.075-0.437,4.402-1.252c31.628-19.422,41.524-60.804,22.102-92.44
		c-19.422-31.628-60.804-41.524-92.44-22.102c-5.477,3.369-10.45,7.502-14.751,12.282c-3.117,3.436-2.848,8.753,0.588,11.862
		C372.352,99.727,372.806,100.055,373.276,100.332L373.276,100.332z M434.239,83.867c26.89,7.208,42.835,34.854,35.627,61.744
		c-2.428,9.056-7.334,17.246-14.163,23.664c-13.895-31.233-36.173-58.006-64.374-77.336
		C403.653,82.842,419.454,79.868,434.239,83.867z"/>
	<path style="fill:#231F20;" d="M429.048,197.443c-14.642-39.164-42.146-72.195-78.008-93.692
		c-12.324-7.393-25.479-13.298-39.189-17.591l4.427-16.516l24.362,6.527c0.714,0.193,1.445,0.286,2.184,0.286
		c4.637,0,8.401-3.763,8.392-8.409c0-3.805-2.554-7.124-6.225-8.107l-64.92-17.389c-4.52-1.058-9.039,1.747-10.098,6.258
		c-1.008,4.318,1.504,8.678,5.754,9.963l24.362,6.527l-4.419,16.507c-14.012-3.133-28.335-4.595-42.692-4.36
		c-102.093,1.722-183.452,85.888-181.73,187.98c0.84,49.732,21.682,97.027,57.821,131.201l-48.522,39.626
		c-3.595,2.94-4.125,8.233-1.184,11.828c2.94,3.595,8.233,4.125,11.82,1.184l50.84-41.524
		c39.558,31.091,90.122,44.649,139.929,37.517l23.261,61.324c1.235,3.259,4.368,5.418,7.855,5.418c1.016,0,2.025-0.185,2.974-0.546
		c4.335-1.647,6.519-6.494,4.881-10.828l-22.236-58.636c17.44-4.133,34.182-10.77,49.715-19.708
		C426.62,377.115,460.718,282.028,429.048,197.443z M380.568,374.914l-11.71-11.71c-3.335-3.226-8.653-3.133-11.878,0.202
		c-3.142,3.259-3.142,8.417,0,11.677l11.702,11.702c-17.616,16.003-38.475,28.041-61.148,35.283l-4.284-15.961
		c-1.201-4.486-5.805-7.141-10.291-5.939c-4.486,1.201-7.141,5.805-5.939,10.291l4.293,16.003
		c-23.261,4.973-47.329,4.914-70.565-0.176l4.2-15.827c1.201-4.486-1.453-9.089-5.939-10.291c-4.486-1.201-9.089,1.453-10.291,5.939
		l-4.2,15.835c-22.673-7.208-43.54-19.195-61.198-35.148l11.71-11.71c3.226-3.335,3.133-8.653-0.21-11.878
		c-3.259-3.142-8.417-3.142-11.668,0l-11.702,11.702c-16.012-17.616-28.041-38.466-35.283-61.148l15.961-4.284
		c4.486-1.201,7.141-5.805,5.939-10.291s-5.805-7.141-10.291-5.939l0,0l-15.961,4.293c-4.982-23.261-4.923-47.321,0.168-70.565
		l15.827,4.2c0.714,0.193,1.445,0.286,2.184,0.286c4.637,0,8.401-3.763,8.392-8.409c0-3.805-2.554-7.124-6.225-8.107l-15.911-4.268
		c7.233-22.673,19.246-43.532,35.224-61.173l11.71,11.71c3.335,3.226,8.653,3.133,11.878-0.21c3.142-3.259,3.142-8.417,0-11.668
		l-11.643-11.643c1.932-1.731,3.805-3.511,5.822-5.175c16.364-13.433,35.131-23.639,55.293-30.083l4.259,15.877
		c0.983,3.671,4.31,6.225,8.107,6.225c0.739,0,1.47-0.092,2.184-0.286c4.478-1.201,7.141-5.805,5.939-10.291l0,0l-4.31-15.877
		c10.694-2.344,21.598-3.629,32.544-3.831c1.092,0,2.184,0,3.276,0c11.694,0.034,23.354,1.311,34.779,3.805l-4.284,15.961
		c-1.201,4.478,1.453,9.089,5.939,10.291l0,0c0.714,0.193,1.445,0.286,2.184,0.286c3.797,0,7.124-2.554,8.107-6.225l4.276-15.961
		c22.682,7.191,43.532,19.229,61.098,35.283l-11.643,11.643c-3.335,3.226-3.427,8.543-0.21,11.878
		c3.226,3.335,8.543,3.427,11.878,0.21c0.067-0.067,0.143-0.134,0.21-0.21l11.618-11.559c14.247,15.684,25.395,33.93,32.846,53.764
		c0.907,2.436,1.68,4.914,2.445,7.376l-15.894,4.259c-4.486,1.201-7.141,5.805-5.939,10.291c0.983,3.671,4.31,6.225,8.107,6.225
		c0.739,0,1.47-0.092,2.184-0.286l15.961-4.284c5.024,23.253,4.998,47.321-0.076,70.565l-15.911-4.267
		c-4.486-1.201-9.089,1.453-10.291,5.939c-1.201,4.486,1.453,9.089,5.939,10.291l15.835,4.242
		C408.483,336.422,396.504,357.273,380.568,374.914z"/>
	<path style="fill:#231F20;" d="M124.417,103.448c0.529,0.101,1.067,0.151,1.605,0.151c1.949,0,3.839-0.68,5.351-1.915
		c29.326-24.177,66.004-37.685,104.008-38.307c4.637-0.067,8.342-3.881,8.275-8.518c-0.008-0.554-0.067-1.109-0.185-1.655
		c-7.745-36.299-43.44-59.451-79.747-51.714s-59.451,43.44-51.714,79.747c1.336,6.267,3.562,12.315,6.611,17.952
		C119.83,101.407,121.947,102.97,124.417,103.448z M129.079,54.271c7.199-26.89,34.837-42.851,61.728-35.652
		c14.793,3.965,26.991,14.441,33.132,28.47c-34.081,2.638-66.768,14.676-94.423,34.778
		C126.794,72.895,126.643,63.327,129.079,54.271z"/>
	<path style="fill:#231F20;" d="M284.255,156.733c-4.478-1.193-9.081,1.462-10.282,5.939l-19.968,74.505
		c-7.577,0.487-14.491,4.478-18.7,10.803l-42.053-11.265c-4.486-1.176-9.081,1.504-10.257,5.99c-1.168,4.461,1.47,9.022,5.914,10.24
		l42.003,11.257c1.008,13.886,13.08,24.32,26.958,23.312c13.886-1.008,24.32-13.08,23.312-26.958
		c-0.554-7.695-4.604-14.701-10.988-19.036l19.96-74.505C291.353,162.547,288.716,157.952,284.255,156.733z M264.094,264.396
		c-1.201,4.478-5.805,7.141-10.291,5.939s-7.141-5.805-5.939-10.291c0.983-3.679,4.326-6.233,8.132-6.225
		c0.739,0,1.479,0.092,2.193,0.286c4.478,1.201,7.141,5.805,5.939,10.291l0,0H264.094z"/>
</g>
<g>
</g>
<g>
</g>
<g>
</g>
<g>
</g>
<g>
</g>
<g>
</g>
<g>
</g>
<g>
</g>
<g>
</g>
<g>
</g>
<g>
</g>
<g>
</g>
<g>
</g>
<g>
</g>
<g>
</g>
</svg>
