<?xml version="1.0" encoding="UTF-8" standalone="no"?>
<svg width="34px" height="28px" viewBox="0 0 34 28" version="1.1" xmlns="http://www.w3.org/2000/svg" xmlns:xlink="http://www.w3.org/1999/xlink">
    <defs></defs>
    <g id="Page-2" stroke="none" stroke-width="1" fill="none" fill-rule="evenodd">
        <g id="Payment-Assets" transform="translate(-126.000000, -195.000000)" fill="#152F94">
            <path d="M138.611774,204.170991 L137.026487,213.983154 L139.560435,213.983154 L141.145239,204.170991 L138.611774,204.170991 L138.611774,204.170991 Z M148.382881,210.776836 C148.392058,209.658634 147.71679,208.810926 146.254674,208.111023 C145.36929,207.656014 144.825887,207.354606 144.832166,206.894284 C144.833132,206.486128 145.291523,206.049474 146.283655,206.049474 C147.112526,206.036432 147.712442,206.227227 148.18001,206.426716 L148.407515,206.538778 L148.750462,204.41202 C148.249566,204.214946 147.461753,204 146.480246,204 C143.97528,204 142.21224,205.331699 142.197267,207.238197 C142.181327,208.64863 143.455546,209.435477 144.416282,209.904011 C145.403584,210.38462 145.735422,210.692307 145.731558,211.121716 C145.724313,211.779112 144.943262,212.080037 144.214861,212.080037 C143.200509,212.080037 142.661453,211.931748 141.828236,211.565616 L141.502677,211.409116 L141.148137,213.605429 C141.738876,213.878821 142.834376,214.115986 143.970933,214.128545 C146.632882,214.128545 148.362594,212.813268 148.382881,210.776836 L148.382881,210.776836 L148.382881,210.776836 Z M148.201263,213.986535 L150.862246,213.986535 C150.862246,213.986535 151.296485,212.777041 151.395023,212.511378 C151.68532,212.511378 154.270951,212.516208 154.639982,212.516208 C154.715817,212.858673 154.948635,213.986535 154.948635,213.986535 L157.299999,213.986535 L155.249559,204.180651 L153.29186,204.180651 C152.684215,204.180651 152.229689,204.35454 151.964026,204.994065 L148.201263,213.986535 L148.201263,213.986535 Z M153.641087,207.671954 C153.641087,207.671954 154.127493,210.013657 154.227479,210.50441 L152.123907,210.50441 C152.334023,209.940238 153.133428,207.761796 153.133428,207.761796 C153.118455,207.787397 153.342095,207.193276 153.470097,206.825211 L153.641087,207.671954 L153.641087,207.671954 Z M133.596046,213.973011 L137.58583,204.179202 L134.901179,204.179202 L132.42133,210.868611 L132.155667,209.508896 L131.267867,205.000344 C131.114748,204.378691 130.6694,204.194176 130.119234,204.17244 L126.033812,204.17244 L126,204.375793 C126.994065,204.629864 127.88283,204.99648 128.661466,205.451972 L130.914776,213.97446 L133.596046,213.973011 L133.596046,213.973011 Z" id="visa"></path>
        </g>
    </g>
</svg>